<?xml version="1.0" encoding="UTF-8" standalone="no"?>
<!DOCTYPE svg PUBLIC "-//W3C//DTD SVG 1.1//EN"
 "http://www.w3.org/Graphics/SVG/1.1/DTD/svg11.dtd">
<!-- Generated by graphviz version 14.1.2 (20260124.0452)
 -->
<!-- Title: dependency&#45;cruiser output Pages: 1 -->
<svg width="177pt" height="226pt"
 viewBox="0.00 0.00 177.00 226.00" xmlns="http://www.w3.org/2000/svg" xmlns:xlink="http://www.w3.org/1999/xlink">
<g id="graph0" class="graph" transform="scale(1 1) rotate(0) translate(4 222)">
<title>dependency&#45;cruiser output</title>
<polygon fill="white" stroke="none" points="-4,4 -4,-222 172.5,-222 172.5,4 -4,4"/>
<g id="clust1" class="cluster">
<title>cluster_src</title>
<path fill="#ffffff" stroke="black" stroke-width="2" d="M20,-8C20,-8 148.5,-8 148.5,-8 154.5,-8 160.5,-14 160.5,-20 160.5,-20 160.5,-198 160.5,-198 160.5,-204 154.5,-210 148.5,-210 148.5,-210 20,-210 20,-210 14,-210 8,-204 8,-198 8,-198 8,-20 8,-20 8,-14 14,-8 20,-8"/>
<text xml:space="preserve" text-anchor="middle" x="84.25" y="-197.45" font-family="Helvetica,sans-Serif" font-weight="bold" font-size="9.00">src</text>
</g>
<!-- src/application -->
<g id="node1" class="node">
<title>src/application</title>
<g id="a_node1"><a xlink:href="src/application" xlink:title="application">
<polygon fill="#ccffcc" stroke="black" points="81.12,-33.88 22.1,-33.88 20.13,-31.9 20.13,-16.12 79.15,-16.12 81.12,-18.1 81.12,-33.88"/>
<polyline fill="none" stroke="black" points="79.15,-31.9 20.13,-31.9"/>
<polyline fill="none" stroke="black" points="79.15,-31.9 79.15,-16.12"/>
<polyline fill="none" stroke="black" points="79.15,-31.9 81.12,-33.88"/>
<text xml:space="preserve" text-anchor="start" x="28.12" y="-21.32" font-family="Helvetica,sans-Serif" font-size="9.00">application</text>
</a>
</g>
</g>
<!-- src/domain -->
<g id="node2" class="node">
<title>src/domain</title>
<g id="a_node2"><a xlink:href="src/domain" xlink:title="domain">
<polygon fill="#ccffcc" stroke="black" points="77.62,-63.88 25.6,-63.88 23.62,-61.9 23.62,-46.12 75.65,-46.12 77.62,-48.1 77.62,-63.88"/>
<polyline fill="none" stroke="black" points="75.65,-61.9 23.62,-61.9"/>
<polyline fill="none" stroke="black" points="75.65,-61.9 75.65,-46.12"/>
<polyline fill="none" stroke="black" points="75.65,-61.9 77.62,-63.88"/>
<text xml:space="preserve" text-anchor="start" x="35.25" y="-51.33" font-family="Helvetica,sans-Serif" font-size="9.00">domain</text>
</a>
</g>
</g>
<!-- src/index.css -->
<g id="node3" class="node">
<title>src/index.css</title>
<g id="a_node3"><a xlink:href="src/index.css" xlink:title="index.css">
<path fill="#ffffcc" stroke="black" d="M146.58,-153.88C146.58,-153.88 104.17,-153.88 104.17,-153.88 101.21,-153.88 98.25,-150.92 98.25,-147.96 98.25,-147.96 98.25,-142.04 98.25,-142.04 98.25,-139.08 101.21,-136.12 104.17,-136.12 104.17,-136.12 146.58,-136.12 146.58,-136.12 149.54,-136.12 152.5,-139.08 152.5,-142.04 152.5,-142.04 152.5,-147.96 152.5,-147.96 152.5,-150.92 149.54,-153.88 146.58,-153.88"/>
<text xml:space="preserve" text-anchor="start" x="106.25" y="-141.32" font-family="Helvetica,sans-Serif" font-size="9.00">index.css</text>
</a>
</g>
</g>
<!-- src/infrastructure -->
<g id="node4" class="node">
<title>src/infrastructure</title>
<g id="a_node4"><a xlink:href="src/infrastructure" xlink:title="infrastructure">
<polygon fill="#ccffcc" stroke="black" points="85.25,-93.88 17.97,-93.88 16,-91.9 16,-76.12 83.28,-76.12 85.25,-78.1 85.25,-93.88"/>
<polyline fill="none" stroke="black" points="83.28,-91.9 16,-91.9"/>
<polyline fill="none" stroke="black" points="83.28,-91.9 83.28,-76.12"/>
<polyline fill="none" stroke="black" points="83.28,-91.9 85.25,-93.88"/>
<text xml:space="preserve" text-anchor="start" x="24" y="-81.33" font-family="Helvetica,sans-Serif" font-size="9.00">infrastructure</text>
</a>
</g>
</g>
<!-- src/lib -->
<g id="node5" class="node">
<title>src/lib</title>
<g id="a_node5"><a xlink:href="src/lib" xlink:title="lib">
<polygon fill="#ccffcc" stroke="black" points="77.62,-123.88 25.6,-123.88 23.62,-121.9 23.62,-106.12 75.65,-106.12 77.62,-108.1 77.62,-123.88"/>
<polyline fill="none" stroke="black" points="75.65,-121.9 23.62,-121.9"/>
<polyline fill="none" stroke="black" points="75.65,-121.9 75.65,-106.12"/>
<polyline fill="none" stroke="black" points="75.65,-121.9 77.62,-123.88"/>
<text xml:space="preserve" text-anchor="start" x="45.75" y="-111.33" font-family="Helvetica,sans-Serif" font-size="9.00">lib</text>
</a>
</g>
</g>
<!-- src/main.tsx -->
<g id="node6" class="node">
<title>src/main.tsx</title>
<g id="a_node6"><a xlink:href="src/main.tsx" xlink:title="main.tsx">
<path fill="#bbfeff" stroke="black" d="M71.71,-153.88C71.71,-153.88 29.54,-153.88 29.54,-153.88 26.58,-153.88 23.62,-150.92 23.62,-147.96 23.62,-147.96 23.62,-142.04 23.62,-142.04 23.62,-139.08 26.58,-136.12 29.54,-136.12 29.54,-136.12 71.71,-136.12 71.71,-136.12 74.67,-136.12 77.62,-139.08 77.62,-142.04 77.62,-142.04 77.62,-147.96 77.62,-147.96 77.62,-150.92 74.67,-153.88 71.71,-153.88"/>
<text xml:space="preserve" text-anchor="start" x="33.75" y="-141.32" font-family="Helvetica,sans-Serif" font-size="9.00">main.tsx</text>
</a>
</g>
</g>
<!-- src/main.tsx&#45;&gt;src/index.css -->
<g id="edge1" class="edge">
<title>src/main.tsx&#45;&gt;src/index.css</title>
<path fill="none" stroke="#000000" stroke-width="2" stroke-opacity="0.200000" d="M77.89,-145C81.55,-145 85.36,-145 89.16,-145"/>
<polygon fill="#000000" fill-opacity="0.200000" stroke="#000000" stroke-width="2" stroke-opacity="0.200000" points="88.88,-147.1 94.88,-145 88.88,-142.9 88.88,-147.1"/>
</g>
<!-- src/ui -->
<g id="node7" class="node">
<title>src/ui</title>
<g id="a_node7"><a xlink:href="src/ui" xlink:title="ui">
<polygon fill="#ccffcc" stroke="black" points="77.62,-183.88 25.6,-183.88 23.62,-181.9 23.62,-166.12 75.65,-166.12 77.62,-168.1 77.62,-183.88"/>
<polyline fill="none" stroke="black" points="75.65,-181.9 23.62,-181.9"/>
<polyline fill="none" stroke="black" points="75.65,-181.9 75.65,-166.12"/>
<polyline fill="none" stroke="black" points="75.65,-181.9 77.62,-183.88"/>
<text xml:space="preserve" text-anchor="start" x="46.88" y="-171.32" font-family="Helvetica,sans-Serif" font-size="9.00">ui</text>
</a>
</g>
</g>
</g>
</svg>
