<?xml version="1.0" encoding="UTF-8" standalone="no"?>
<!DOCTYPE svg PUBLIC "-//W3C//DTD SVG 1.1//EN"
 "http://www.w3.org/Graphics/SVG/1.1/DTD/svg11.dtd">
<!-- Generated by graphviz version 14.1.2 (20260124.0452)
 -->
<!-- Title: dependency&#45;cruiser output Pages: 1 -->
<svg width="598pt" height="1472pt"
 viewBox="0.00 0.00 598.00 1472.00" xmlns="http://www.w3.org/2000/svg" xmlns:xlink="http://www.w3.org/1999/xlink">
<g id="graph0" class="graph" transform="scale(1 1) rotate(0) translate(4 1468)">
<title>dependency&#45;cruiser output</title>
<polygon fill="white" stroke="none" points="-4,4 -4,-1468 594,-1468 594,4 -4,4"/>
<g id="clust1" class="cluster">
<title>cluster_src</title>
<path fill="#ffffff" stroke="black" stroke-width="2" d="M20,-8C20,-8 570,-8 570,-8 576,-8 582,-14 582,-20 582,-20 582,-1444 582,-1444 582,-1450 576,-1456 570,-1456 570,-1456 20,-1456 20,-1456 14,-1456 8,-1450 8,-1444 8,-1444 8,-20 8,-20 8,-14 14,-8 20,-8"/>
<text xml:space="preserve" text-anchor="middle" x="295" y="-1443.45" font-family="Helvetica,sans-Serif" font-weight="bold" font-size="9.00">src</text>
</g>
<g id="clust2" class="cluster">
<title>cluster_src/application</title>
<path fill="#ffffff" stroke="black" stroke-width="2" d="M48.62,-16C48.62,-16 180.62,-16 180.62,-16 186.62,-16 192.62,-22 192.62,-28 192.62,-28 192.62,-300 192.62,-300 192.62,-306 186.62,-312 180.62,-312 180.62,-312 48.62,-312 48.62,-312 42.62,-312 36.62,-306 36.62,-300 36.62,-300 36.62,-28 36.62,-28 36.62,-22 42.62,-16 48.62,-16"/>
<text xml:space="preserve" text-anchor="middle" x="114.62" y="-299.45" font-family="Helvetica,sans-Serif" font-weight="bold" font-size="9.00">application</text>
</g>
<g id="clust3" class="cluster">
<title>cluster_src/application/repositories</title>
<path fill="#ffffff" stroke="black" stroke-width="2" d="M63.38,-24C63.38,-24 165.88,-24 165.88,-24 171.88,-24 177.88,-30 177.88,-36 177.88,-36 177.88,-94 177.88,-94 177.88,-100 171.88,-106 165.88,-106 165.88,-106 63.38,-106 63.38,-106 57.38,-106 51.38,-100 51.38,-94 51.38,-94 51.38,-36 51.38,-36 51.38,-30 57.38,-24 63.38,-24"/>
<text xml:space="preserve" text-anchor="middle" x="114.62" y="-93.45" font-family="Helvetica,sans-Serif" font-weight="bold" font-size="9.00">repositories</text>
</g>
<g id="clust4" class="cluster">
<title>cluster_src/application/use&#45;cases</title>
<path fill="#ffffff" stroke="black" stroke-width="2" d="M56.62,-114C56.62,-114 172.62,-114 172.62,-114 178.62,-114 184.62,-120 184.62,-126 184.62,-126 184.62,-274 184.62,-274 184.62,-280 178.62,-286 172.62,-286 172.62,-286 56.62,-286 56.62,-286 50.62,-286 44.62,-280 44.62,-274 44.62,-274 44.62,-126 44.62,-126 44.62,-120 50.62,-114 56.62,-114"/>
<text xml:space="preserve" text-anchor="middle" x="114.62" y="-273.45" font-family="Helvetica,sans-Serif" font-weight="bold" font-size="9.00">use&#45;cases</text>
</g>
<g id="clust5" class="cluster">
<title>cluster_src/domain</title>
<path fill="#ffffff" stroke="black" stroke-width="2" d="M77.5,-320C77.5,-320 151.75,-320 151.75,-320 157.75,-320 163.75,-326 163.75,-332 163.75,-332 163.75,-424 163.75,-424 163.75,-430 157.75,-436 151.75,-436 151.75,-436 77.5,-436 77.5,-436 71.5,-436 65.5,-430 65.5,-424 65.5,-424 65.5,-332 65.5,-332 65.5,-326 71.5,-320 77.5,-320"/>
<text xml:space="preserve" text-anchor="middle" x="114.62" y="-423.45" font-family="Helvetica,sans-Serif" font-weight="bold" font-size="9.00">domain</text>
</g>
<g id="clust6" class="cluster">
<title>cluster_src/domain/entities</title>
<path fill="#ffffff" stroke="black" stroke-width="2" d="M85.5,-328C85.5,-328 143.75,-328 143.75,-328 149.75,-328 155.75,-334 155.75,-340 155.75,-340 155.75,-398 155.75,-398 155.75,-404 149.75,-410 143.75,-410 143.75,-410 85.5,-410 85.5,-410 79.5,-410 73.5,-404 73.5,-398 73.5,-398 73.5,-340 73.5,-340 73.5,-334 79.5,-328 85.5,-328"/>
<text xml:space="preserve" text-anchor="middle" x="114.62" y="-397.45" font-family="Helvetica,sans-Serif" font-weight="bold" font-size="9.00">entities</text>
</g>
<g id="clust7" class="cluster">
<title>cluster_src/infrastructure</title>
<path fill="#ffffff" stroke="black" stroke-width="2" d="M28,-444C28,-444 562,-444 562,-444 568,-444 574,-450 574,-456 574,-456 574,-638 574,-638 574,-644 568,-650 562,-650 562,-650 28,-650 28,-650 22,-650 16,-644 16,-638 16,-638 16,-456 16,-456 16,-450 22,-444 28,-444"/>
<text xml:space="preserve" text-anchor="middle" x="295" y="-637.45" font-family="Helvetica,sans-Serif" font-weight="bold" font-size="9.00">infrastructure</text>
</g>
<g id="clust8" class="cluster">
<title>cluster_src/infrastructure/api</title>
<path fill="#ffffff" stroke="black" stroke-width="2" d="M226.38,-452C226.38,-452 554,-452 554,-452 560,-452 566,-458 566,-464 566,-464 566,-612 566,-612 566,-618 560,-624 554,-624 554,-624 226.38,-624 226.38,-624 220.38,-624 214.38,-618 214.38,-612 214.38,-612 214.38,-464 214.38,-464 214.38,-458 220.38,-452 226.38,-452"/>
<text xml:space="preserve" text-anchor="middle" x="390.19" y="-611.45" font-family="Helvetica,sans-Serif" font-weight="bold" font-size="9.00">api</text>
</g>
<g id="clust9" class="cluster">
<title>cluster_src/infrastructure/api/dto</title>
<path fill="#ffffff" stroke="black" stroke-width="2" d="M245.88,-460C245.88,-460 322.88,-460 322.88,-460 328.88,-460 334.88,-466 334.88,-472 334.88,-472 334.88,-530 334.88,-530 334.88,-536 328.88,-542 322.88,-542 322.88,-542 245.88,-542 245.88,-542 239.88,-542 233.88,-536 233.88,-530 233.88,-530 233.88,-472 233.88,-472 233.88,-466 239.88,-460 245.88,-460"/>
<text xml:space="preserve" text-anchor="middle" x="284.38" y="-529.45" font-family="Helvetica,sans-Serif" font-weight="bold" font-size="9.00">dto</text>
</g>
<g id="clust10" class="cluster">
<title>cluster_src/infrastructure/api/mappers</title>
<path fill="#ffffff" stroke="black" stroke-width="2" d="M383.5,-516C383.5,-516 473.25,-516 473.25,-516 479.25,-516 485.25,-522 485.25,-528 485.25,-528 485.25,-586 485.25,-586 485.25,-592 479.25,-598 473.25,-598 473.25,-598 383.5,-598 383.5,-598 377.5,-598 371.5,-592 371.5,-586 371.5,-586 371.5,-528 371.5,-528 371.5,-522 377.5,-516 383.5,-516"/>
<text xml:space="preserve" text-anchor="middle" x="428.38" y="-585.45" font-family="Helvetica,sans-Serif" font-weight="bold" font-size="9.00">mappers</text>
</g>
<g id="clust11" class="cluster">
<title>cluster_src/infrastructure/repositories</title>
<path fill="#ffffff" stroke="black" stroke-width="2" d="M36,-456C36,-456 193.25,-456 193.25,-456 199.25,-456 205.25,-462 205.25,-468 205.25,-468 205.25,-556 205.25,-556 205.25,-562 199.25,-568 193.25,-568 193.25,-568 36,-568 36,-568 30,-568 24,-562 24,-556 24,-556 24,-468 24,-468 24,-462 30,-456 36,-456"/>
<text xml:space="preserve" text-anchor="middle" x="114.62" y="-555.45" font-family="Helvetica,sans-Serif" font-weight="bold" font-size="9.00">repositories</text>
</g>
<g id="clust12" class="cluster">
<title>cluster_src/lib</title>
<path fill="#ffffff" stroke="black" stroke-width="2" d="M91.62,-658C91.62,-658 137.62,-658 137.62,-658 143.62,-658 149.62,-664 149.62,-670 149.62,-670 149.62,-698 149.62,-698 149.62,-704 143.62,-710 137.62,-710 137.62,-710 91.62,-710 91.62,-710 85.62,-710 79.62,-704 79.62,-698 79.62,-698 79.62,-670 79.62,-670 79.62,-664 85.62,-658 91.62,-658"/>
<text xml:space="preserve" text-anchor="middle" x="114.62" y="-697.45" font-family="Helvetica,sans-Serif" font-weight="bold" font-size="9.00">lib</text>
</g>
<g id="clust13" class="cluster">
<title>cluster_src/ui</title>
<path fill="#ffffff" stroke="black" stroke-width="2" d="M65.12,-718C65.12,-718 351.5,-718 351.5,-718 357.5,-718 363.5,-724 363.5,-730 363.5,-730 363.5,-1392 363.5,-1392 363.5,-1398 357.5,-1404 351.5,-1404 351.5,-1404 65.12,-1404 65.12,-1404 59.12,-1404 53.12,-1398 53.12,-1392 53.12,-1392 53.12,-730 53.12,-730 53.12,-724 59.12,-718 65.12,-718"/>
<text xml:space="preserve" text-anchor="middle" x="208.31" y="-1391.45" font-family="Helvetica,sans-Serif" font-weight="bold" font-size="9.00">ui</text>
</g>
<g id="clust14" class="cluster">
<title>cluster_src/ui/components</title>
<path fill="#ffffff" stroke="black" stroke-width="2" d="M73.12,-726C73.12,-726 316.88,-726 316.88,-726 322.88,-726 328.88,-732 328.88,-738 328.88,-738 328.88,-1186 328.88,-1186 328.88,-1192 322.88,-1198 316.88,-1198 316.88,-1198 73.12,-1198 73.12,-1198 67.12,-1198 61.12,-1192 61.12,-1186 61.12,-1186 61.12,-738 61.12,-738 61.12,-732 67.12,-726 73.12,-726"/>
<text xml:space="preserve" text-anchor="middle" x="195" y="-1185.45" font-family="Helvetica,sans-Serif" font-weight="bold" font-size="9.00">components</text>
</g>
<g id="clust15" class="cluster">
<title>cluster_src/ui/components/ui</title>
<path fill="#ffffff" stroke="black" stroke-width="2" d="M84.38,-734C84.38,-734 144.88,-734 144.88,-734 150.88,-734 156.88,-740 156.88,-746 156.88,-746 156.88,-1044 156.88,-1044 156.88,-1050 150.88,-1056 144.88,-1056 144.88,-1056 84.38,-1056 84.38,-1056 78.38,-1056 72.38,-1050 72.38,-1044 72.38,-1044 72.38,-746 72.38,-746 72.38,-740 78.38,-734 84.38,-734"/>
<text xml:space="preserve" text-anchor="middle" x="114.62" y="-1043.45" font-family="Helvetica,sans-Serif" font-weight="bold" font-size="9.00">ui</text>
</g>
<g id="clust16" class="cluster">
<title>cluster_src/ui/pages</title>
<path fill="#ffffff" stroke="black" stroke-width="2" d="M225.25,-1206C225.25,-1206 343.5,-1206 343.5,-1206 349.5,-1206 355.5,-1212 355.5,-1218 355.5,-1218 355.5,-1366 355.5,-1366 355.5,-1372 349.5,-1378 343.5,-1378 343.5,-1378 225.25,-1378 225.25,-1378 219.25,-1378 213.25,-1372 213.25,-1366 213.25,-1366 213.25,-1218 213.25,-1218 213.25,-1212 219.25,-1206 225.25,-1206"/>
<text xml:space="preserve" text-anchor="middle" x="284.38" y="-1365.45" font-family="Helvetica,sans-Serif" font-weight="bold" font-size="9.00">pages</text>
</g>
<!-- src/application/repositories/EmployeeRepository.ts -->
<g id="node1" class="node">
<title>src/application/repositories/EmployeeRepository.ts</title>
<g id="a_node1"><a xlink:href="src/application/repositories/EmployeeRepository.ts" xlink:title="EmployeeRepository.ts">
<path fill="#ccffcc" stroke="black" d="M163.96,-49.88C163.96,-49.88 65.29,-49.88 65.29,-49.88 62.33,-49.88 59.38,-46.92 59.38,-43.96 59.38,-43.96 59.38,-38.04 59.38,-38.04 59.38,-35.08 62.33,-32.12 65.29,-32.12 65.29,-32.12 163.96,-32.12 163.96,-32.12 166.92,-32.12 169.88,-35.08 169.88,-38.04 169.88,-38.04 169.88,-43.96 169.88,-43.96 169.88,-46.92 166.92,-49.88 163.96,-49.88"/>
<text xml:space="preserve" text-anchor="start" x="67.38" y="-37.33" font-family="Helvetica,sans-Serif" font-size="9.00">EmployeeRepository.ts</text>
</a>
</g>
</g>
<!-- src/application/repositories/TimeEntryRepository.ts -->
<g id="node2" class="node">
<title>src/application/repositories/TimeEntryRepository.ts</title>
<g id="a_node2"><a xlink:href="src/application/repositories/TimeEntryRepository.ts" xlink:title="TimeEntryRepository.ts">
<path fill="#ccffcc" stroke="black" d="M163.58,-79.88C163.58,-79.88 65.67,-79.88 65.67,-79.88 62.71,-79.88 59.75,-76.92 59.75,-73.96 59.75,-73.96 59.75,-68.04 59.75,-68.04 59.75,-65.08 62.71,-62.12 65.67,-62.12 65.67,-62.12 163.58,-62.12 163.58,-62.12 166.54,-62.12 169.5,-65.08 169.5,-68.04 169.5,-68.04 169.5,-73.96 169.5,-73.96 169.5,-76.92 166.54,-79.88 163.58,-79.88"/>
<text xml:space="preserve" text-anchor="start" x="67.75" y="-67.33" font-family="Helvetica,sans-Serif" font-size="9.00">TimeEntryRepository.ts</text>
</a>
</g>
</g>
<!-- src/application/use&#45;cases/CreateEmployee.ts -->
<g id="node3" class="node">
<title>src/application/use&#45;cases/CreateEmployee.ts</title>
<g id="a_node3"><a xlink:href="src/application/use-cases/CreateEmployee.ts" xlink:title="CreateEmployee.ts">
<path fill="#ccffcc" stroke="black" d="M155.71,-139.88C155.71,-139.88 73.54,-139.88 73.54,-139.88 70.58,-139.88 67.62,-136.92 67.62,-133.96 67.62,-133.96 67.62,-128.04 67.62,-128.04 67.62,-125.08 70.58,-122.12 73.54,-122.12 73.54,-122.12 155.71,-122.12 155.71,-122.12 158.67,-122.12 161.62,-125.08 161.62,-128.04 161.62,-128.04 161.62,-133.96 161.62,-133.96 161.62,-136.92 158.67,-139.88 155.71,-139.88"/>
<text xml:space="preserve" text-anchor="start" x="75.62" y="-127.33" font-family="Helvetica,sans-Serif" font-size="9.00">CreateEmployee.ts</text>
</a>
</g>
</g>
<!-- src/application/use&#45;cases/GetDashboardSummary.ts -->
<g id="node4" class="node">
<title>src/application/use&#45;cases/GetDashboardSummary.ts</title>
<g id="a_node4"><a xlink:href="src/application/use-cases/GetDashboardSummary.ts" xlink:title="GetDashboardSummary.ts">
<path fill="#ccffcc" stroke="black" d="M170.71,-169.88C170.71,-169.88 58.54,-169.88 58.54,-169.88 55.58,-169.88 52.62,-166.92 52.62,-163.96 52.62,-163.96 52.62,-158.04 52.62,-158.04 52.62,-155.08 55.58,-152.12 58.54,-152.12 58.54,-152.12 170.71,-152.12 170.71,-152.12 173.67,-152.12 176.62,-155.08 176.62,-158.04 176.62,-158.04 176.62,-163.96 176.62,-163.96 176.62,-166.92 173.67,-169.88 170.71,-169.88"/>
<text xml:space="preserve" text-anchor="start" x="60.62" y="-157.32" font-family="Helvetica,sans-Serif" font-size="9.00">GetDashboardSummary.ts</text>
</a>
</g>
</g>
<!-- src/application/use&#45;cases/GetEmployeeHours.ts -->
<g id="node5" class="node">
<title>src/application/use&#45;cases/GetEmployeeHours.ts</title>
<g id="a_node5"><a xlink:href="src/application/use-cases/GetEmployeeHours.ts" xlink:title="GetEmployeeHours.ts">
<path fill="#ccffcc" stroke="black" d="M161.33,-199.88C161.33,-199.88 67.92,-199.88 67.92,-199.88 64.96,-199.88 62,-196.92 62,-193.96 62,-193.96 62,-188.04 62,-188.04 62,-185.08 64.96,-182.12 67.92,-182.12 67.92,-182.12 161.33,-182.12 161.33,-182.12 164.29,-182.12 167.25,-185.08 167.25,-188.04 167.25,-188.04 167.25,-193.96 167.25,-193.96 167.25,-196.92 164.29,-199.88 161.33,-199.88"/>
<text xml:space="preserve" text-anchor="start" x="70" y="-187.32" font-family="Helvetica,sans-Serif" font-size="9.00">GetEmployeeHours.ts</text>
</a>
</g>
</g>
<!-- src/application/use&#45;cases/RegisterTimeEntry.ts -->
<g id="node6" class="node">
<title>src/application/use&#45;cases/RegisterTimeEntry.ts</title>
<g id="a_node6"><a xlink:href="src/application/use-cases/RegisterTimeEntry.ts" xlink:title="RegisterTimeEntry.ts">
<path fill="#ccffcc" stroke="black" d="M158.71,-229.88C158.71,-229.88 70.54,-229.88 70.54,-229.88 67.58,-229.88 64.62,-226.92 64.62,-223.96 64.62,-223.96 64.62,-218.04 64.62,-218.04 64.62,-215.08 67.58,-212.12 70.54,-212.12 70.54,-212.12 158.71,-212.12 158.71,-212.12 161.67,-212.12 164.62,-215.08 164.62,-218.04 164.62,-218.04 164.62,-223.96 164.62,-223.96 164.62,-226.92 161.67,-229.88 158.71,-229.88"/>
<text xml:space="preserve" text-anchor="start" x="72.62" y="-217.32" font-family="Helvetica,sans-Serif" font-size="9.00">RegisterTimeEntry.ts</text>
</a>
</g>
</g>
<!-- src/application/use&#45;cases/UpdateTimeEntryStatus.ts -->
<g id="node7" class="node">
<title>src/application/use&#45;cases/UpdateTimeEntryStatus.ts</title>
<g id="a_node7"><a xlink:href="src/application/use-cases/UpdateTimeEntryStatus.ts" xlink:title="UpdateTimeEntryStatus.ts">
<path fill="#ccffcc" stroke="black" d="M169.21,-259.88C169.21,-259.88 60.04,-259.88 60.04,-259.88 57.08,-259.88 54.12,-256.92 54.12,-253.96 54.12,-253.96 54.12,-248.04 54.12,-248.04 54.12,-245.08 57.08,-242.12 60.04,-242.12 60.04,-242.12 169.21,-242.12 169.21,-242.12 172.17,-242.12 175.12,-245.08 175.12,-248.04 175.12,-248.04 175.12,-253.96 175.12,-253.96 175.12,-256.92 172.17,-259.88 169.21,-259.88"/>
<text xml:space="preserve" text-anchor="start" x="62.12" y="-247.32" font-family="Helvetica,sans-Serif" font-size="9.00">UpdateTimeEntryStatus.ts</text>
</a>
</g>
</g>
<!-- src/domain/entities/Employee.ts -->
<g id="node8" class="node">
<title>src/domain/entities/Employee.ts</title>
<g id="a_node8"><a xlink:href="src/domain/entities/Employee.ts" xlink:title="Employee.ts">
<path fill="#ccffcc" stroke="black" d="M141.83,-353.88C141.83,-353.88 87.42,-353.88 87.42,-353.88 84.46,-353.88 81.5,-350.92 81.5,-347.96 81.5,-347.96 81.5,-342.04 81.5,-342.04 81.5,-339.08 84.46,-336.12 87.42,-336.12 87.42,-336.12 141.83,-336.12 141.83,-336.12 144.79,-336.12 147.75,-339.08 147.75,-342.04 147.75,-342.04 147.75,-347.96 147.75,-347.96 147.75,-350.92 144.79,-353.88 141.83,-353.88"/>
<text xml:space="preserve" text-anchor="start" x="89.5" y="-341.32" font-family="Helvetica,sans-Serif" font-size="9.00">Employee.ts</text>
</a>
</g>
</g>
<!-- src/domain/entities/TimeEntry.ts -->
<g id="node9" class="node">
<title>src/domain/entities/TimeEntry.ts</title>
<g id="a_node9"><a xlink:href="src/domain/entities/TimeEntry.ts" xlink:title="TimeEntry.ts">
<path fill="#ccffcc" stroke="black" d="M141.46,-383.88C141.46,-383.88 87.79,-383.88 87.79,-383.88 84.83,-383.88 81.88,-380.92 81.88,-377.96 81.88,-377.96 81.88,-372.04 81.88,-372.04 81.88,-369.08 84.83,-366.12 87.79,-366.12 87.79,-366.12 141.46,-366.12 141.46,-366.12 144.42,-366.12 147.38,-369.08 147.38,-372.04 147.38,-372.04 147.38,-377.96 147.38,-377.96 147.38,-380.92 144.42,-383.88 141.46,-383.88"/>
<text xml:space="preserve" text-anchor="start" x="89.88" y="-371.32" font-family="Helvetica,sans-Serif" font-size="9.00">TimeEntry.ts</text>
</a>
</g>
</g>
<!-- src/index.css -->
<g id="node10" class="node">
<title>src/index.css</title>
<g id="a_node10"><a xlink:href="src/index.css" xlink:title="index.css">
<path fill="#ffffcc" stroke="black" d="M305.58,-1429.88C305.58,-1429.88 263.17,-1429.88 263.17,-1429.88 260.21,-1429.88 257.25,-1426.92 257.25,-1423.96 257.25,-1423.96 257.25,-1418.04 257.25,-1418.04 257.25,-1415.08 260.21,-1412.12 263.17,-1412.12 263.17,-1412.12 305.58,-1412.12 305.58,-1412.12 308.54,-1412.12 311.5,-1415.08 311.5,-1418.04 311.5,-1418.04 311.5,-1423.96 311.5,-1423.96 311.5,-1426.92 308.54,-1429.88 305.58,-1429.88"/>
<text xml:space="preserve" text-anchor="start" x="265.25" y="-1417.33" font-family="Helvetica,sans-Serif" font-size="9.00">index.css</text>
</a>
</g>
</g>
<!-- src/infrastructure/SharedRepository.ts -->
<g id="node11" class="node">
<title>src/infrastructure/SharedRepository.ts</title>
<g id="a_node11"><a xlink:href="src/infrastructure/SharedRepository.ts" xlink:title="SharedRepository.ts">
<path fill="#ddfeff" stroke="black" d="M158.33,-595.88C158.33,-595.88 70.92,-595.88 70.92,-595.88 67.96,-595.88 65,-592.92 65,-589.96 65,-589.96 65,-584.04 65,-584.04 65,-581.08 67.96,-578.12 70.92,-578.12 70.92,-578.12 158.33,-578.12 158.33,-578.12 161.29,-578.12 164.25,-581.08 164.25,-584.04 164.25,-584.04 164.25,-589.96 164.25,-589.96 164.25,-592.92 161.29,-595.88 158.33,-595.88"/>
<text xml:space="preserve" text-anchor="start" x="73" y="-583.33" font-family="Helvetica,sans-Serif" font-size="9.00">SharedRepository.ts</text>
</a>
</g>
</g>
<!-- src/infrastructure/api/ApiEmployeeRepository.ts -->
<g id="node12" class="node">
<title>src/infrastructure/api/ApiEmployeeRepository.ts</title>
<g id="a_node12"><a xlink:href="src/infrastructure/api/ApiEmployeeRepository.ts" xlink:title="ApiEmployeeRepository.ts">
<path fill="#ddfeff" stroke="black" d="M340.46,-567.88C340.46,-567.88 228.29,-567.88 228.29,-567.88 225.33,-567.88 222.38,-564.92 222.38,-561.96 222.38,-561.96 222.38,-556.04 222.38,-556.04 222.38,-553.08 225.33,-550.12 228.29,-550.12 228.29,-550.12 340.46,-550.12 340.46,-550.12 343.42,-550.12 346.38,-553.08 346.38,-556.04 346.38,-556.04 346.38,-561.96 346.38,-561.96 346.38,-564.92 343.42,-567.88 340.46,-567.88"/>
<text xml:space="preserve" text-anchor="start" x="230.38" y="-555.33" font-family="Helvetica,sans-Serif" font-size="9.00">ApiEmployeeRepository.ts</text>
</a>
</g>
</g>
<!-- src/infrastructure/SharedRepository.ts&#45;&gt;src/infrastructure/api/ApiEmployeeRepository.ts -->
<g id="edge1" class="edge">
<title>src/infrastructure/SharedRepository.ts&#45;&gt;src/infrastructure/api/ApiEmployeeRepository.ts</title>
<path fill="none" stroke="#000000" stroke-width="2" stroke-opacity="0.200000" d="M164.6,-578.83C181.47,-576.01 200.63,-572.81 218.57,-569.82"/>
<polygon fill="#000000" fill-opacity="0.200000" stroke="#000000" stroke-width="2" stroke-opacity="0.200000" points="218.7,-571.92 224.27,-568.87 218.01,-567.78 218.7,-571.92"/>
</g>
<!-- src/infrastructure/api/ApiTimeEntryRepository.ts -->
<g id="node13" class="node">
<title>src/infrastructure/api/ApiTimeEntryRepository.ts</title>
<g id="a_node13"><a xlink:href="src/infrastructure/api/ApiTimeEntryRepository.ts" xlink:title="ApiTimeEntryRepository.ts">
<path fill="#ddfeff" stroke="black" d="M340.08,-597.88C340.08,-597.88 228.67,-597.88 228.67,-597.88 225.71,-597.88 222.75,-594.92 222.75,-591.96 222.75,-591.96 222.75,-586.04 222.75,-586.04 222.75,-583.08 225.71,-580.12 228.67,-580.12 228.67,-580.12 340.08,-580.12 340.08,-580.12 343.04,-580.12 346,-583.08 346,-586.04 346,-586.04 346,-591.96 346,-591.96 346,-594.92 343.04,-597.88 340.08,-597.88"/>
<text xml:space="preserve" text-anchor="start" x="230.75" y="-585.33" font-family="Helvetica,sans-Serif" font-size="9.00">ApiTimeEntryRepository.ts</text>
</a>
</g>
</g>
<!-- src/infrastructure/SharedRepository.ts&#45;&gt;src/infrastructure/api/ApiTimeEntryRepository.ts -->
<g id="edge2" class="edge">
<title>src/infrastructure/SharedRepository.ts&#45;&gt;src/infrastructure/api/ApiTimeEntryRepository.ts</title>
<path fill="none" stroke="#000000" stroke-width="2" stroke-opacity="0.200000" d="M164.6,-587.58C179.85,-587.77 196.99,-587.97 213.39,-588.17"/>
<polygon fill="#000000" fill-opacity="0.200000" stroke="#000000" stroke-width="2" stroke-opacity="0.200000" points="213.36,-590.27 219.39,-588.24 213.41,-586.07 213.36,-590.27"/>
</g>
<!-- src/infrastructure/api/ApiClient.ts -->
<g id="node14" class="node">
<title>src/infrastructure/api/ApiClient.ts</title>
<g id="a_node14"><a xlink:href="src/infrastructure/api/ApiClient.ts" xlink:title="ApiClient.ts">
<path fill="#ddfeff" stroke="black" d="M453.71,-507.88C453.71,-507.88 403.04,-507.88 403.04,-507.88 400.08,-507.88 397.12,-504.92 397.12,-501.96 397.12,-501.96 397.12,-496.04 397.12,-496.04 397.12,-493.08 400.08,-490.12 403.04,-490.12 403.04,-490.12 453.71,-490.12 453.71,-490.12 456.67,-490.12 459.62,-493.08 459.62,-496.04 459.62,-496.04 459.62,-501.96 459.62,-501.96 459.62,-504.92 456.67,-507.88 453.71,-507.88"/>
<text xml:space="preserve" text-anchor="start" x="405.12" y="-495.32" font-family="Helvetica,sans-Serif" font-size="9.00">ApiClient.ts</text>
</a>
</g>
</g>
<!-- src/infrastructure/api/ApiEmployeeRepository.ts&#45;&gt;src/infrastructure/api/ApiClient.ts -->
<g id="edge4" class="edge">
<title>src/infrastructure/api/ApiEmployeeRepository.ts&#45;&gt;src/infrastructure/api/ApiClient.ts</title>
<path fill="none" stroke="#000000" stroke-width="2" stroke-opacity="0.200000" d="M346.72,-555.24C352.9,-552.83 358.67,-549.52 363.5,-545 374.21,-534.99 361.14,-523.37 371.5,-513 376.12,-508.38 382.02,-505.21 388.24,-503.04"/>
<polygon fill="#000000" fill-opacity="0.200000" stroke="#000000" stroke-width="2" stroke-opacity="0.200000" points="388.7,-505.09 393.92,-501.48 387.58,-501.05 388.7,-505.09"/>
</g>
<!-- src/infrastructure/api/mappers/EmployeeMapper.ts -->
<g id="node16" class="node">
<title>src/infrastructure/api/mappers/EmployeeMapper.ts</title>
<g id="a_node16"><a xlink:href="src/infrastructure/api/mappers/EmployeeMapper.ts" xlink:title="EmployeeMapper.ts">
<path fill="#ddfeff" stroke="black" d="M471.33,-541.88C471.33,-541.88 385.42,-541.88 385.42,-541.88 382.46,-541.88 379.5,-538.92 379.5,-535.96 379.5,-535.96 379.5,-530.04 379.5,-530.04 379.5,-527.08 382.46,-524.12 385.42,-524.12 385.42,-524.12 471.33,-524.12 471.33,-524.12 474.29,-524.12 477.25,-527.08 477.25,-530.04 477.25,-530.04 477.25,-535.96 477.25,-535.96 477.25,-538.92 474.29,-541.88 471.33,-541.88"/>
<text xml:space="preserve" text-anchor="start" x="387.5" y="-529.33" font-family="Helvetica,sans-Serif" font-size="9.00">EmployeeMapper.ts</text>
</a>
</g>
</g>
<!-- src/infrastructure/api/ApiEmployeeRepository.ts&#45;&gt;src/infrastructure/api/mappers/EmployeeMapper.ts -->
<g id="edge5" class="edge">
<title>src/infrastructure/api/ApiEmployeeRepository.ts&#45;&gt;src/infrastructure/api/mappers/EmployeeMapper.ts</title>
<path fill="none" stroke="#000000" stroke-width="2" stroke-opacity="0.200000" d="M337.92,-549.65C346.47,-548.11 355.23,-546.52 363.5,-545 365.89,-544.56 368.34,-544.11 370.8,-543.65"/>
<polygon fill="#000000" fill-opacity="0.200000" stroke="#000000" stroke-width="2" stroke-opacity="0.200000" points="370.76,-545.8 376.28,-542.64 369.99,-541.67 370.76,-545.8"/>
</g>
<!-- src/infrastructure/api/ApiTimeEntryRepository.ts&#45;&gt;src/infrastructure/api/ApiClient.ts -->
<g id="edge6" class="edge">
<title>src/infrastructure/api/ApiTimeEntryRepository.ts&#45;&gt;src/infrastructure/api/ApiClient.ts</title>
<path fill="none" stroke="#000000" stroke-width="2" stroke-opacity="0.200000" d="M346.14,-585.41C352.66,-582.81 358.67,-579.13 363.5,-574 382.25,-554.1 353.31,-533.41 371.5,-513 375.89,-508.07 381.73,-504.75 387.98,-502.54"/>
<polygon fill="#000000" fill-opacity="0.200000" stroke="#000000" stroke-width="2" stroke-opacity="0.200000" points="388.51,-504.58 393.74,-500.97 387.4,-500.53 388.51,-504.58"/>
</g>
<!-- src/infrastructure/api/mappers/TimeEntryMapper.ts -->
<g id="node17" class="node">
<title>src/infrastructure/api/mappers/TimeEntryMapper.ts</title>
<g id="a_node17"><a xlink:href="src/infrastructure/api/mappers/TimeEntryMapper.ts" xlink:title="TimeEntryMapper.ts">
<path fill="#ddfeff" stroke="black" d="M470.96,-571.88C470.96,-571.88 385.79,-571.88 385.79,-571.88 382.83,-571.88 379.88,-568.92 379.88,-565.96 379.88,-565.96 379.88,-560.04 379.88,-560.04 379.88,-557.08 382.83,-554.12 385.79,-554.12 385.79,-554.12 470.96,-554.12 470.96,-554.12 473.92,-554.12 476.88,-557.08 476.88,-560.04 476.88,-560.04 476.88,-565.96 476.88,-565.96 476.88,-568.92 473.92,-571.88 470.96,-571.88"/>
<text xml:space="preserve" text-anchor="start" x="387.88" y="-559.33" font-family="Helvetica,sans-Serif" font-size="9.00">TimeEntryMapper.ts</text>
</a>
</g>
</g>
<!-- src/infrastructure/api/ApiTimeEntryRepository.ts&#45;&gt;src/infrastructure/api/mappers/TimeEntryMapper.ts -->
<g id="edge7" class="edge">
<title>src/infrastructure/api/ApiTimeEntryRepository.ts&#45;&gt;src/infrastructure/api/mappers/TimeEntryMapper.ts</title>
<path fill="none" stroke="#000000" stroke-width="2" stroke-opacity="0.200000" d="M336.24,-579.69C347.53,-577.62 359.56,-575.42 371.05,-573.31"/>
<polygon fill="#000000" fill-opacity="0.200000" stroke="#000000" stroke-width="2" stroke-opacity="0.200000" points="371.21,-575.42 376.73,-572.27 370.45,-571.29 371.21,-575.42"/>
</g>
<!-- src/infrastructure/api/apiConfig.ts -->
<g id="node15" class="node">
<title>src/infrastructure/api/apiConfig.ts</title>
<g id="a_node15"><a xlink:href="src/infrastructure/api/apiConfig.ts" xlink:title="apiConfig.ts">
<path fill="#ddfeff" stroke="black" d="M552.08,-507.88C552.08,-507.88 499.17,-507.88 499.17,-507.88 496.21,-507.88 493.25,-504.92 493.25,-501.96 493.25,-501.96 493.25,-496.04 493.25,-496.04 493.25,-493.08 496.21,-490.12 499.17,-490.12 499.17,-490.12 552.08,-490.12 552.08,-490.12 555.04,-490.12 558,-493.08 558,-496.04 558,-496.04 558,-501.96 558,-501.96 558,-504.92 555.04,-507.88 552.08,-507.88"/>
<text xml:space="preserve" text-anchor="start" x="501.25" y="-495.32" font-family="Helvetica,sans-Serif" font-size="9.00">apiConfig.ts</text>
</a>
</g>
</g>
<!-- src/infrastructure/api/ApiClient.ts&#45;&gt;src/infrastructure/api/apiConfig.ts -->
<g id="edge3" class="edge">
<title>src/infrastructure/api/ApiClient.ts&#45;&gt;src/infrastructure/api/apiConfig.ts</title>
<path fill="none" stroke="#000000" stroke-width="2" stroke-opacity="0.200000" d="M460.04,-499C467.7,-499 476.04,-499 484.1,-499"/>
<polygon fill="#000000" fill-opacity="0.200000" stroke="#000000" stroke-width="2" stroke-opacity="0.200000" points="484.01,-501.1 490.01,-499 484.01,-496.9 484.01,-501.1"/>
</g>
<!-- src/infrastructure/api/dto/EmployeeDTO.ts -->
<g id="node18" class="node">
<title>src/infrastructure/api/dto/EmployeeDTO.ts</title>
<g id="a_node18"><a xlink:href="src/infrastructure/api/dto/EmployeeDTO.ts" xlink:title="EmployeeDTO.ts">
<path fill="#ccffcc" stroke="black" d="M320.96,-485.88C320.96,-485.88 247.79,-485.88 247.79,-485.88 244.83,-485.88 241.88,-482.92 241.88,-479.96 241.88,-479.96 241.88,-474.04 241.88,-474.04 241.88,-471.08 244.83,-468.12 247.79,-468.12 247.79,-468.12 320.96,-468.12 320.96,-468.12 323.92,-468.12 326.88,-471.08 326.88,-474.04 326.88,-474.04 326.88,-479.96 326.88,-479.96 326.88,-482.92 323.92,-485.88 320.96,-485.88"/>
<text xml:space="preserve" text-anchor="start" x="249.88" y="-473.32" font-family="Helvetica,sans-Serif" font-size="9.00">EmployeeDTO.ts</text>
</a>
</g>
</g>
<!-- src/infrastructure/api/dto/TimeEntryDTO.ts -->
<g id="node19" class="node">
<title>src/infrastructure/api/dto/TimeEntryDTO.ts</title>
<g id="a_node19"><a xlink:href="src/infrastructure/api/dto/TimeEntryDTO.ts" xlink:title="TimeEntryDTO.ts">
<path fill="#ccffcc" stroke="black" d="M320.58,-515.88C320.58,-515.88 248.17,-515.88 248.17,-515.88 245.21,-515.88 242.25,-512.92 242.25,-509.96 242.25,-509.96 242.25,-504.04 242.25,-504.04 242.25,-501.08 245.21,-498.12 248.17,-498.12 248.17,-498.12 320.58,-498.12 320.58,-498.12 323.54,-498.12 326.5,-501.08 326.5,-504.04 326.5,-504.04 326.5,-509.96 326.5,-509.96 326.5,-512.92 323.54,-515.88 320.58,-515.88"/>
<text xml:space="preserve" text-anchor="start" x="250.25" y="-503.32" font-family="Helvetica,sans-Serif" font-size="9.00">TimeEntryDTO.ts</text>
</a>
</g>
</g>
<!-- src/infrastructure/repositories/InMemoryTimeEntryRepository.ts -->
<g id="node20" class="node">
<title>src/infrastructure/repositories/InMemoryTimeEntryRepository.ts</title>
<g id="a_node20"><a xlink:href="src/infrastructure/repositories/InMemoryTimeEntryRepository.ts" xlink:title="InMemoryTimeEntryRepository.ts">
<path fill="#ccffcc" stroke="black" d="M183.83,-481.88C183.83,-481.88 45.42,-481.88 45.42,-481.88 42.46,-481.88 39.5,-478.92 39.5,-475.96 39.5,-475.96 39.5,-470.04 39.5,-470.04 39.5,-467.08 42.46,-464.12 45.42,-464.12 45.42,-464.12 183.83,-464.12 183.83,-464.12 186.79,-464.12 189.75,-467.08 189.75,-470.04 189.75,-470.04 189.75,-475.96 189.75,-475.96 189.75,-478.92 186.79,-481.88 183.83,-481.88"/>
<text xml:space="preserve" text-anchor="start" x="47.5" y="-469.32" font-family="Helvetica,sans-Serif" font-size="9.00">InMemoryTimeEntryRepository.ts</text>
</a>
</g>
</g>
<!-- src/infrastructure/repositories/LocalStorageEmployeeRepository.ts -->
<g id="node21" class="node">
<title>src/infrastructure/repositories/LocalStorageEmployeeRepository.ts</title>
<g id="a_node21"><a xlink:href="src/infrastructure/repositories/LocalStorageEmployeeRepository.ts" xlink:title="LocalStorageEmployeeRepository.ts">
<path fill="#ccffcc" stroke="black" d="M191.33,-511.88C191.33,-511.88 37.92,-511.88 37.92,-511.88 34.96,-511.88 32,-508.92 32,-505.96 32,-505.96 32,-500.04 32,-500.04 32,-497.08 34.96,-494.12 37.92,-494.12 37.92,-494.12 191.33,-494.12 191.33,-494.12 194.29,-494.12 197.25,-497.08 197.25,-500.04 197.25,-500.04 197.25,-505.96 197.25,-505.96 197.25,-508.92 194.29,-511.88 191.33,-511.88"/>
<text xml:space="preserve" text-anchor="start" x="40" y="-499.32" font-family="Helvetica,sans-Serif" font-size="9.00">LocalStorageEmployeeRepository.ts</text>
</a>
</g>
</g>
<!-- src/infrastructure/repositories/LocalStorageTimeEntryRepository.ts -->
<g id="node22" class="node">
<title>src/infrastructure/repositories/LocalStorageTimeEntryRepository.ts</title>
<g id="a_node22"><a xlink:href="src/infrastructure/repositories/LocalStorageTimeEntryRepository.ts" xlink:title="LocalStorageTimeEntryRepository.ts">
<path fill="#ccffcc" stroke="black" d="M190.96,-541.88C190.96,-541.88 38.29,-541.88 38.29,-541.88 35.33,-541.88 32.38,-538.92 32.38,-535.96 32.38,-535.96 32.38,-530.04 32.38,-530.04 32.38,-527.08 35.33,-524.12 38.29,-524.12 38.29,-524.12 190.96,-524.12 190.96,-524.12 193.92,-524.12 196.88,-527.08 196.88,-530.04 196.88,-530.04 196.88,-535.96 196.88,-535.96 196.88,-538.92 193.92,-541.88 190.96,-541.88"/>
<text xml:space="preserve" text-anchor="start" x="40.38" y="-529.33" font-family="Helvetica,sans-Serif" font-size="9.00">LocalStorageTimeEntryRepository.ts</text>
</a>
</g>
</g>
<!-- src/lib/utils.ts -->
<g id="node23" class="node">
<title>src/lib/utils.ts</title>
<g id="a_node23"><a xlink:href="src/lib/utils.ts" xlink:title="utils.ts">
<path fill="#ccffcc" stroke="black" d="M135.71,-683.88C135.71,-683.88 93.54,-683.88 93.54,-683.88 90.58,-683.88 87.62,-680.92 87.62,-677.96 87.62,-677.96 87.62,-672.04 87.62,-672.04 87.62,-669.08 90.58,-666.12 93.54,-666.12 93.54,-666.12 135.71,-666.12 135.71,-666.12 138.67,-666.12 141.62,-669.08 141.62,-672.04 141.62,-672.04 141.62,-677.96 141.62,-677.96 141.62,-680.92 138.67,-683.88 135.71,-683.88"/>
<text xml:space="preserve" text-anchor="start" x="101.88" y="-671.33" font-family="Helvetica,sans-Serif" font-size="9.00">utils.ts</text>
</a>
</g>
</g>
<!-- src/main.tsx -->
<g id="node24" class="node">
<title>src/main.tsx</title>
<g id="a_node24"><a xlink:href="src/main.tsx" xlink:title="main.tsx">
<path fill="#bbfeff" stroke="black" d="M135.71,-1429.88C135.71,-1429.88 93.54,-1429.88 93.54,-1429.88 90.58,-1429.88 87.62,-1426.92 87.62,-1423.96 87.62,-1423.96 87.62,-1418.04 87.62,-1418.04 87.62,-1415.08 90.58,-1412.12 93.54,-1412.12 93.54,-1412.12 135.71,-1412.12 135.71,-1412.12 138.67,-1412.12 141.62,-1415.08 141.62,-1418.04 141.62,-1418.04 141.62,-1423.96 141.62,-1423.96 141.62,-1426.92 138.67,-1429.88 135.71,-1429.88"/>
<text xml:space="preserve" text-anchor="start" x="97.75" y="-1417.33" font-family="Helvetica,sans-Serif" font-size="9.00">main.tsx</text>
</a>
</g>
</g>
<!-- src/main.tsx&#45;&gt;src/index.css -->
<g id="edge8" class="edge">
<title>src/main.tsx&#45;&gt;src/index.css</title>
<path fill="none" stroke="#000000" stroke-width="2" stroke-opacity="0.200000" d="M141.84,-1421C170.35,-1421 216.1,-1421 247.84,-1421"/>
<polygon fill="#000000" fill-opacity="0.200000" stroke="#000000" stroke-width="2" stroke-opacity="0.200000" points="247.77,-1423.1 253.77,-1421 247.77,-1418.9 247.77,-1423.1"/>
</g>
<!-- src/ui/App.tsx -->
<g id="node25" class="node">
<title>src/ui/App.tsx</title>
<g id="a_node25"><a xlink:href="src/ui/App.tsx" xlink:title="App.tsx">
<path fill="#bbfeff" stroke="black" d="M135.71,-1276.88C135.71,-1276.88 93.54,-1276.88 93.54,-1276.88 90.58,-1276.88 87.62,-1273.92 87.62,-1270.96 87.62,-1270.96 87.62,-1265.04 87.62,-1265.04 87.62,-1262.08 90.58,-1259.12 93.54,-1259.12 93.54,-1259.12 135.71,-1259.12 135.71,-1259.12 138.67,-1259.12 141.62,-1262.08 141.62,-1265.04 141.62,-1265.04 141.62,-1270.96 141.62,-1270.96 141.62,-1273.92 138.67,-1276.88 135.71,-1276.88"/>
<text xml:space="preserve" text-anchor="start" x="99.62" y="-1264.33" font-family="Helvetica,sans-Serif" font-size="9.00">App.tsx</text>
</a>
</g>
</g>
<!-- src/ui/pages/AddHours.tsx -->
<g id="node26" class="node">
<title>src/ui/pages/AddHours.tsx</title>
<g id="a_node26"><a xlink:href="src/ui/pages/AddHours.tsx" xlink:title="AddHours.tsx">
<path fill="#bbfeff" stroke="black" d="M313.83,-1231.88C313.83,-1231.88 254.92,-1231.88 254.92,-1231.88 251.96,-1231.88 249,-1228.92 249,-1225.96 249,-1225.96 249,-1220.04 249,-1220.04 249,-1217.08 251.96,-1214.12 254.92,-1214.12 254.92,-1214.12 313.83,-1214.12 313.83,-1214.12 316.79,-1214.12 319.75,-1217.08 319.75,-1220.04 319.75,-1220.04 319.75,-1225.96 319.75,-1225.96 319.75,-1228.92 316.79,-1231.88 313.83,-1231.88"/>
<text xml:space="preserve" text-anchor="start" x="257" y="-1219.33" font-family="Helvetica,sans-Serif" font-size="9.00">AddHours.tsx</text>
</a>
</g>
</g>
<!-- src/ui/App.tsx&#45;&gt;src/ui/pages/AddHours.tsx -->
<g id="edge9" class="edge">
<title>src/ui/App.tsx&#45;&gt;src/ui/pages/AddHours.tsx</title>
<path fill="none" stroke="#000000" stroke-width="2" stroke-opacity="0.200000" d="M141.96,-1259.22C161.51,-1252.87 188.88,-1244.34 213.25,-1238 221.83,-1235.77 231.07,-1233.62 239.94,-1231.67"/>
<polygon fill="#000000" fill-opacity="0.200000" stroke="#000000" stroke-width="2" stroke-opacity="0.200000" points="240.25,-1233.75 245.68,-1230.44 239.37,-1229.65 240.25,-1233.75"/>
</g>
<!-- src/ui/pages/Dashboard.tsx -->
<g id="node27" class="node">
<title>src/ui/pages/Dashboard.tsx</title>
<g id="a_node27"><a xlink:href="src/ui/pages/Dashboard.tsx" xlink:title="Dashboard.tsx">
<path fill="#bbfeff" stroke="black" d="M316.08,-1261.88C316.08,-1261.88 252.67,-1261.88 252.67,-1261.88 249.71,-1261.88 246.75,-1258.92 246.75,-1255.96 246.75,-1255.96 246.75,-1250.04 246.75,-1250.04 246.75,-1247.08 249.71,-1244.12 252.67,-1244.12 252.67,-1244.12 316.08,-1244.12 316.08,-1244.12 319.04,-1244.12 322,-1247.08 322,-1250.04 322,-1250.04 322,-1255.96 322,-1255.96 322,-1258.92 319.04,-1261.88 316.08,-1261.88"/>
<text xml:space="preserve" text-anchor="start" x="254.75" y="-1249.33" font-family="Helvetica,sans-Serif" font-size="9.00">Dashboard.tsx</text>
</a>
</g>
</g>
<!-- src/ui/App.tsx&#45;&gt;src/ui/pages/Dashboard.tsx -->
<g id="edge10" class="edge">
<title>src/ui/App.tsx&#45;&gt;src/ui/pages/Dashboard.tsx</title>
<path fill="none" stroke="#000000" stroke-width="2" stroke-opacity="0.200000" d="M141.84,-1265.66C167.42,-1263.37 206.87,-1259.84 237.62,-1257.09"/>
<polygon fill="#000000" fill-opacity="0.200000" stroke="#000000" stroke-width="2" stroke-opacity="0.200000" points="237.65,-1259.2 243.44,-1256.57 237.28,-1255.01 237.65,-1259.2"/>
</g>
<!-- src/ui/pages/EmployeeProfile.tsx -->
<g id="node28" class="node">
<title>src/ui/pages/EmployeeProfile.tsx</title>
<g id="a_node28"><a xlink:href="src/ui/pages/EmployeeProfile.tsx" xlink:title="EmployeeProfile.tsx">
<path fill="#bbfeff" stroke="black" d="M326.96,-1291.88C326.96,-1291.88 241.79,-1291.88 241.79,-1291.88 238.83,-1291.88 235.88,-1288.92 235.88,-1285.96 235.88,-1285.96 235.88,-1280.04 235.88,-1280.04 235.88,-1277.08 238.83,-1274.12 241.79,-1274.12 241.79,-1274.12 326.96,-1274.12 326.96,-1274.12 329.92,-1274.12 332.88,-1277.08 332.88,-1280.04 332.88,-1280.04 332.88,-1285.96 332.88,-1285.96 332.88,-1288.92 329.92,-1291.88 326.96,-1291.88"/>
<text xml:space="preserve" text-anchor="start" x="243.88" y="-1279.33" font-family="Helvetica,sans-Serif" font-size="9.00">EmployeeProfile.tsx</text>
</a>
</g>
</g>
<!-- src/ui/App.tsx&#45;&gt;src/ui/pages/EmployeeProfile.tsx -->
<g id="edge11" class="edge">
<title>src/ui/App.tsx&#45;&gt;src/ui/pages/EmployeeProfile.tsx</title>
<path fill="none" stroke="#000000" stroke-width="2" stroke-opacity="0.200000" d="M141.84,-1270.34C164.47,-1272.37 197.95,-1275.36 226.67,-1277.93"/>
<polygon fill="#000000" fill-opacity="0.200000" stroke="#000000" stroke-width="2" stroke-opacity="0.200000" points="226.24,-1280 232.4,-1278.44 226.61,-1275.82 226.24,-1280"/>
</g>
<!-- src/ui/pages/Employees.tsx -->
<g id="node29" class="node">
<title>src/ui/pages/Employees.tsx</title>
<g id="a_node29"><a xlink:href="src/ui/pages/Employees.tsx" xlink:title="Employees.tsx">
<path fill="#bbfeff" stroke="black" d="M316.08,-1321.88C316.08,-1321.88 252.67,-1321.88 252.67,-1321.88 249.71,-1321.88 246.75,-1318.92 246.75,-1315.96 246.75,-1315.96 246.75,-1310.04 246.75,-1310.04 246.75,-1307.08 249.71,-1304.12 252.67,-1304.12 252.67,-1304.12 316.08,-1304.12 316.08,-1304.12 319.04,-1304.12 322,-1307.08 322,-1310.04 322,-1310.04 322,-1315.96 322,-1315.96 322,-1318.92 319.04,-1321.88 316.08,-1321.88"/>
<text xml:space="preserve" text-anchor="start" x="254.75" y="-1309.33" font-family="Helvetica,sans-Serif" font-size="9.00">Employees.tsx</text>
</a>
</g>
</g>
<!-- src/ui/App.tsx&#45;&gt;src/ui/pages/Employees.tsx -->
<g id="edge12" class="edge">
<title>src/ui/App.tsx&#45;&gt;src/ui/pages/Employees.tsx</title>
<path fill="none" stroke="#000000" stroke-width="2" stroke-opacity="0.200000" d="M142.04,-1265.54C161.33,-1265.13 187.18,-1267.62 205.25,-1281 211.96,-1285.97 206.71,-1292.81 213.25,-1298 220.27,-1303.57 228.89,-1307.2 237.65,-1309.53"/>
<polygon fill="#000000" fill-opacity="0.200000" stroke="#000000" stroke-width="2" stroke-opacity="0.200000" points="237.14,-1311.57 243.45,-1310.8 238.04,-1307.46 237.14,-1311.57"/>
</g>
<!-- src/ui/components/AppLayout.tsx -->
<g id="node30" class="node">
<title>src/ui/components/AppLayout.tsx</title>
<g id="a_node30"><a xlink:href="src/ui/components/AppLayout.tsx" xlink:title="AppLayout.tsx">
<path fill="#bbfeff" stroke="black" d="M145.58,-1081.88C145.58,-1081.88 83.67,-1081.88 83.67,-1081.88 80.71,-1081.88 77.75,-1078.92 77.75,-1075.96 77.75,-1075.96 77.75,-1070.04 77.75,-1070.04 77.75,-1067.08 80.71,-1064.12 83.67,-1064.12 83.67,-1064.12 145.58,-1064.12 145.58,-1064.12 148.54,-1064.12 151.5,-1067.08 151.5,-1070.04 151.5,-1070.04 151.5,-1075.96 151.5,-1075.96 151.5,-1078.92 148.54,-1081.88 145.58,-1081.88"/>
<text xml:space="preserve" text-anchor="start" x="85.75" y="-1069.33" font-family="Helvetica,sans-Serif" font-size="9.00">AppLayout.tsx</text>
</a>
</g>
</g>
<!-- src/ui/components/MainMenu.tsx -->
<g id="node31" class="node">
<title>src/ui/components/MainMenu.tsx</title>
<g id="a_node31"><a xlink:href="src/ui/components/MainMenu.tsx" xlink:title="MainMenu.tsx">
<path fill="#bbfeff" stroke="black" d="M314.96,-1081.88C314.96,-1081.88 253.79,-1081.88 253.79,-1081.88 250.83,-1081.88 247.88,-1078.92 247.88,-1075.96 247.88,-1075.96 247.88,-1070.04 247.88,-1070.04 247.88,-1067.08 250.83,-1064.12 253.79,-1064.12 253.79,-1064.12 314.96,-1064.12 314.96,-1064.12 317.92,-1064.12 320.88,-1067.08 320.88,-1070.04 320.88,-1070.04 320.88,-1075.96 320.88,-1075.96 320.88,-1078.92 317.92,-1081.88 314.96,-1081.88"/>
<text xml:space="preserve" text-anchor="start" x="255.88" y="-1069.33" font-family="Helvetica,sans-Serif" font-size="9.00">MainMenu.tsx</text>
</a>
</g>
</g>
<!-- src/ui/components/AppLayout.tsx&#45;&gt;src/ui/components/MainMenu.tsx -->
<g id="edge13" class="edge">
<title>src/ui/components/AppLayout.tsx&#45;&gt;src/ui/components/MainMenu.tsx</title>
<path fill="none" stroke="#000000" stroke-width="2" stroke-opacity="0.200000" d="M151.61,-1073C177.04,-1073 211.3,-1073 238.51,-1073"/>
<polygon fill="#000000" fill-opacity="0.200000" stroke="#000000" stroke-width="2" stroke-opacity="0.200000" points="238.42,-1075.1 244.42,-1073 238.42,-1070.9 238.42,-1075.1"/>
</g>
<!-- src/ui/components/EmployeeList.tsx -->
<g id="node32" class="node">
<title>src/ui/components/EmployeeList.tsx</title>
<g id="a_node32"><a xlink:href="src/ui/components/EmployeeList.tsx" xlink:title="EmployeeList.tsx">
<path fill="#ccffcc" stroke="black" d="M151.21,-1111.88C151.21,-1111.88 78.04,-1111.88 78.04,-1111.88 75.08,-1111.88 72.12,-1108.92 72.12,-1105.96 72.12,-1105.96 72.12,-1100.04 72.12,-1100.04 72.12,-1097.08 75.08,-1094.12 78.04,-1094.12 78.04,-1094.12 151.21,-1094.12 151.21,-1094.12 154.17,-1094.12 157.12,-1097.08 157.12,-1100.04 157.12,-1100.04 157.12,-1105.96 157.12,-1105.96 157.12,-1108.92 154.17,-1111.88 151.21,-1111.88"/>
<text xml:space="preserve" text-anchor="start" x="80.12" y="-1099.33" font-family="Helvetica,sans-Serif" font-size="9.00">EmployeeList.tsx</text>
</a>
</g>
</g>
<!-- src/ui/components/ThemeToggle.tsx -->
<g id="node33" class="node">
<title>src/ui/components/ThemeToggle.tsx</title>
<g id="a_node33"><a xlink:href="src/ui/components/ThemeToggle.tsx" xlink:title="ThemeToggle.tsx">
<path fill="#ccffcc" stroke="black" d="M151.58,-1141.88C151.58,-1141.88 77.67,-1141.88 77.67,-1141.88 74.71,-1141.88 71.75,-1138.92 71.75,-1135.96 71.75,-1135.96 71.75,-1130.04 71.75,-1130.04 71.75,-1127.08 74.71,-1124.12 77.67,-1124.12 77.67,-1124.12 151.58,-1124.12 151.58,-1124.12 154.54,-1124.12 157.5,-1127.08 157.5,-1130.04 157.5,-1130.04 157.5,-1135.96 157.5,-1135.96 157.5,-1138.92 154.54,-1141.88 151.58,-1141.88"/>
<text xml:space="preserve" text-anchor="start" x="79.75" y="-1129.33" font-family="Helvetica,sans-Serif" font-size="9.00">ThemeToggle.tsx</text>
</a>
</g>
</g>
<!-- src/ui/components/TimeEntryForm.tsx -->
<g id="node34" class="node">
<title>src/ui/components/TimeEntryForm.tsx</title>
<g id="a_node34"><a xlink:href="src/ui/components/TimeEntryForm.tsx" xlink:title="TimeEntryForm.tsx">
<path fill="#ccffcc" stroke="black" d="M154.21,-1171.88C154.21,-1171.88 75.04,-1171.88 75.04,-1171.88 72.08,-1171.88 69.12,-1168.92 69.12,-1165.96 69.12,-1165.96 69.12,-1160.04 69.12,-1160.04 69.12,-1157.08 72.08,-1154.12 75.04,-1154.12 75.04,-1154.12 154.21,-1154.12 154.21,-1154.12 157.17,-1154.12 160.12,-1157.08 160.12,-1160.04 160.12,-1160.04 160.12,-1165.96 160.12,-1165.96 160.12,-1168.92 157.17,-1171.88 154.21,-1171.88"/>
<text xml:space="preserve" text-anchor="start" x="77.12" y="-1159.33" font-family="Helvetica,sans-Serif" font-size="9.00">TimeEntryForm.tsx</text>
</a>
</g>
</g>
<!-- src/ui/components/ui/avatar.tsx -->
<g id="node35" class="node">
<title>src/ui/components/ui/avatar.tsx</title>
<g id="a_node35"><a xlink:href="src/ui/components/ui/avatar.tsx" xlink:title="avatar.tsx">
<path fill="#ccffcc" stroke="black" d="M136.21,-759.88C136.21,-759.88 93.04,-759.88 93.04,-759.88 90.08,-759.88 87.12,-756.92 87.12,-753.96 87.12,-753.96 87.12,-748.04 87.12,-748.04 87.12,-745.08 90.08,-742.12 93.04,-742.12 93.04,-742.12 136.21,-742.12 136.21,-742.12 139.17,-742.12 142.12,-745.08 142.12,-748.04 142.12,-748.04 142.12,-753.96 142.12,-753.96 142.12,-756.92 139.17,-759.88 136.21,-759.88"/>
<text xml:space="preserve" text-anchor="start" x="95.12" y="-747.33" font-family="Helvetica,sans-Serif" font-size="9.00">avatar.tsx</text>
</a>
</g>
</g>
<!-- src/ui/components/ui/button.tsx -->
<g id="node36" class="node">
<title>src/ui/components/ui/button.tsx</title>
<g id="a_node36"><a xlink:href="src/ui/components/ui/button.tsx" xlink:title="button.tsx">
<path fill="#ccffcc" stroke="black" d="M136.21,-789.88C136.21,-789.88 93.04,-789.88 93.04,-789.88 90.08,-789.88 87.12,-786.92 87.12,-783.96 87.12,-783.96 87.12,-778.04 87.12,-778.04 87.12,-775.08 90.08,-772.12 93.04,-772.12 93.04,-772.12 136.21,-772.12 136.21,-772.12 139.17,-772.12 142.12,-775.08 142.12,-778.04 142.12,-778.04 142.12,-783.96 142.12,-783.96 142.12,-786.92 139.17,-789.88 136.21,-789.88"/>
<text xml:space="preserve" text-anchor="start" x="95.12" y="-777.33" font-family="Helvetica,sans-Serif" font-size="9.00">button.tsx</text>
</a>
</g>
</g>
<!-- src/ui/components/ui/dialog.tsx -->
<g id="node37" class="node">
<title>src/ui/components/ui/dialog.tsx</title>
<g id="a_node37"><a xlink:href="src/ui/components/ui/dialog.tsx" xlink:title="dialog.tsx">
<path fill="#ccffcc" stroke="black" d="M136.21,-819.88C136.21,-819.88 93.04,-819.88 93.04,-819.88 90.08,-819.88 87.12,-816.92 87.12,-813.96 87.12,-813.96 87.12,-808.04 87.12,-808.04 87.12,-805.08 90.08,-802.12 93.04,-802.12 93.04,-802.12 136.21,-802.12 136.21,-802.12 139.17,-802.12 142.12,-805.08 142.12,-808.04 142.12,-808.04 142.12,-813.96 142.12,-813.96 142.12,-816.92 139.17,-819.88 136.21,-819.88"/>
<text xml:space="preserve" text-anchor="start" x="95.12" y="-807.33" font-family="Helvetica,sans-Serif" font-size="9.00">dialog.tsx</text>
</a>
</g>
</g>
<!-- src/ui/components/ui/field.tsx -->
<g id="node38" class="node">
<title>src/ui/components/ui/field.tsx</title>
<g id="a_node38"><a xlink:href="src/ui/components/ui/field.tsx" xlink:title="field.tsx">
<path fill="#ccffcc" stroke="black" d="M135.71,-849.88C135.71,-849.88 93.54,-849.88 93.54,-849.88 90.58,-849.88 87.62,-846.92 87.62,-843.96 87.62,-843.96 87.62,-838.04 87.62,-838.04 87.62,-835.08 90.58,-832.12 93.54,-832.12 93.54,-832.12 135.71,-832.12 135.71,-832.12 138.67,-832.12 141.62,-835.08 141.62,-838.04 141.62,-838.04 141.62,-843.96 141.62,-843.96 141.62,-846.92 138.67,-849.88 135.71,-849.88"/>
<text xml:space="preserve" text-anchor="start" x="99.25" y="-837.33" font-family="Helvetica,sans-Serif" font-size="9.00">field.tsx</text>
</a>
</g>
</g>
<!-- src/ui/components/ui/input.tsx -->
<g id="node39" class="node">
<title>src/ui/components/ui/input.tsx</title>
<g id="a_node39"><a xlink:href="src/ui/components/ui/input.tsx" xlink:title="input.tsx">
<path fill="#ccffcc" stroke="black" d="M135.71,-879.88C135.71,-879.88 93.54,-879.88 93.54,-879.88 90.58,-879.88 87.62,-876.92 87.62,-873.96 87.62,-873.96 87.62,-868.04 87.62,-868.04 87.62,-865.08 90.58,-862.12 93.54,-862.12 93.54,-862.12 135.71,-862.12 135.71,-862.12 138.67,-862.12 141.62,-865.08 141.62,-868.04 141.62,-868.04 141.62,-873.96 141.62,-873.96 141.62,-876.92 138.67,-879.88 135.71,-879.88"/>
<text xml:space="preserve" text-anchor="start" x="97.75" y="-867.33" font-family="Helvetica,sans-Serif" font-size="9.00">input.tsx</text>
</a>
</g>
</g>
<!-- src/ui/components/ui/label.tsx -->
<g id="node40" class="node">
<title>src/ui/components/ui/label.tsx</title>
<g id="a_node40"><a xlink:href="src/ui/components/ui/label.tsx" xlink:title="label.tsx">
<path fill="#ccffcc" stroke="black" d="M135.71,-909.88C135.71,-909.88 93.54,-909.88 93.54,-909.88 90.58,-909.88 87.62,-906.92 87.62,-903.96 87.62,-903.96 87.62,-898.04 87.62,-898.04 87.62,-895.08 90.58,-892.12 93.54,-892.12 93.54,-892.12 135.71,-892.12 135.71,-892.12 138.67,-892.12 141.62,-895.08 141.62,-898.04 141.62,-898.04 141.62,-903.96 141.62,-903.96 141.62,-906.92 138.67,-909.88 135.71,-909.88"/>
<text xml:space="preserve" text-anchor="start" x="97.75" y="-897.33" font-family="Helvetica,sans-Serif" font-size="9.00">label.tsx</text>
</a>
</g>
</g>
<!-- src/ui/components/ui/select.tsx -->
<g id="node41" class="node">
<title>src/ui/components/ui/select.tsx</title>
<g id="a_node41"><a xlink:href="src/ui/components/ui/select.tsx" xlink:title="select.tsx">
<path fill="#ccffcc" stroke="black" d="M135.71,-939.88C135.71,-939.88 93.54,-939.88 93.54,-939.88 90.58,-939.88 87.62,-936.92 87.62,-933.96 87.62,-933.96 87.62,-928.04 87.62,-928.04 87.62,-925.08 90.58,-922.12 93.54,-922.12 93.54,-922.12 135.71,-922.12 135.71,-922.12 138.67,-922.12 141.62,-925.08 141.62,-928.04 141.62,-928.04 141.62,-933.96 141.62,-933.96 141.62,-936.92 138.67,-939.88 135.71,-939.88"/>
<text xml:space="preserve" text-anchor="start" x="95.88" y="-927.33" font-family="Helvetica,sans-Serif" font-size="9.00">select.tsx</text>
</a>
</g>
</g>
<!-- src/ui/components/ui/separator.tsx -->
<g id="node42" class="node">
<title>src/ui/components/ui/separator.tsx</title>
<g id="a_node42"><a xlink:href="src/ui/components/ui/separator.tsx" xlink:title="separator.tsx">
<path fill="#ccffcc" stroke="black" d="M142.96,-969.88C142.96,-969.88 86.29,-969.88 86.29,-969.88 83.33,-969.88 80.38,-966.92 80.38,-963.96 80.38,-963.96 80.38,-958.04 80.38,-958.04 80.38,-955.08 83.33,-952.12 86.29,-952.12 86.29,-952.12 142.96,-952.12 142.96,-952.12 145.92,-952.12 148.88,-955.08 148.88,-958.04 148.88,-958.04 148.88,-963.96 148.88,-963.96 148.88,-966.92 145.92,-969.88 142.96,-969.88"/>
<text xml:space="preserve" text-anchor="start" x="88.38" y="-957.33" font-family="Helvetica,sans-Serif" font-size="9.00">separator.tsx</text>
</a>
</g>
</g>
<!-- src/ui/components/ui/table.tsx -->
<g id="node43" class="node">
<title>src/ui/components/ui/table.tsx</title>
<g id="a_node43"><a xlink:href="src/ui/components/ui/table.tsx" xlink:title="table.tsx">
<path fill="#ccffcc" stroke="black" d="M135.71,-999.88C135.71,-999.88 93.54,-999.88 93.54,-999.88 90.58,-999.88 87.62,-996.92 87.62,-993.96 87.62,-993.96 87.62,-988.04 87.62,-988.04 87.62,-985.08 90.58,-982.12 93.54,-982.12 93.54,-982.12 135.71,-982.12 135.71,-982.12 138.67,-982.12 141.62,-985.08 141.62,-988.04 141.62,-988.04 141.62,-993.96 141.62,-993.96 141.62,-996.92 138.67,-999.88 135.71,-999.88"/>
<text xml:space="preserve" text-anchor="start" x="97.75" y="-987.33" font-family="Helvetica,sans-Serif" font-size="9.00">table.tsx</text>
</a>
</g>
</g>
<!-- src/ui/components/ui/textarea.tsx -->
<g id="node44" class="node">
<title>src/ui/components/ui/textarea.tsx</title>
<g id="a_node44"><a xlink:href="src/ui/components/ui/textarea.tsx" xlink:title="textarea.tsx">
<path fill="#ccffcc" stroke="black" d="M139.96,-1029.88C139.96,-1029.88 89.29,-1029.88 89.29,-1029.88 86.33,-1029.88 83.38,-1026.92 83.38,-1023.96 83.38,-1023.96 83.38,-1018.04 83.38,-1018.04 83.38,-1015.08 86.33,-1012.12 89.29,-1012.12 89.29,-1012.12 139.96,-1012.12 139.96,-1012.12 142.92,-1012.12 145.88,-1015.08 145.88,-1018.04 145.88,-1018.04 145.88,-1023.96 145.88,-1023.96 145.88,-1026.92 142.92,-1029.88 139.96,-1029.88"/>
<text xml:space="preserve" text-anchor="start" x="91.38" y="-1017.33" font-family="Helvetica,sans-Serif" font-size="9.00">textarea.tsx</text>
</a>
</g>
</g>
<!-- src/ui/pages/RegisterTimeEntryPage.tsx -->
<g id="node45" class="node">
<title>src/ui/pages/RegisterTimeEntryPage.tsx</title>
<g id="a_node45"><a xlink:href="src/ui/pages/RegisterTimeEntryPage.tsx" xlink:title="RegisterTimeEntryPage.tsx">
<path fill="#ccffcc" stroke="black" d="M341.58,-1351.88C341.58,-1351.88 227.17,-1351.88 227.17,-1351.88 224.21,-1351.88 221.25,-1348.92 221.25,-1345.96 221.25,-1345.96 221.25,-1340.04 221.25,-1340.04 221.25,-1337.08 224.21,-1334.12 227.17,-1334.12 227.17,-1334.12 341.58,-1334.12 341.58,-1334.12 344.54,-1334.12 347.5,-1337.08 347.5,-1340.04 347.5,-1340.04 347.5,-1345.96 347.5,-1345.96 347.5,-1348.92 344.54,-1351.88 341.58,-1351.88"/>
<text xml:space="preserve" text-anchor="start" x="229.25" y="-1339.33" font-family="Helvetica,sans-Serif" font-size="9.00">RegisterTimeEntryPage.tsx</text>
</a>
</g>
</g>
</g>
</svg>
